<svg width="400" height="400" viewBox="0 0 400 400" fill="none" xmlns="http://www.w3.org/2000/svg">
  <rect width="400" height="400" fill="#F3F4F6"/>
  <path d="M200 120C174.5 120 154 140.5 154 166V180H246V166C246 140.5 225.5 120 200 120Z" fill="#E5E7EB"/>
  <path d="M140 180H260C271.046 180 280 188.954 280 200V260C280 271.046 271.046 280 260 280H140C128.954 280 120 271.046 120 260V200C120 188.954 128.954 180 140 180Z" fill="#E5E7EB"/>
  <circle cx="200" cy="200" r="8" fill="#9CA3AF"/>
  <path d="M180 230L200 210L220 230L240 210L260 230" stroke="#9CA3AF" stroke-width="2" stroke-linecap="round" stroke-linejoin="round"/>
</svg>